<svg xmlns="http://www.w3.org/2000/svg" version="1.1" xmlns:xlink="http://www.w3.org/1999/xlink" xmlns:svgjs="http://svgjs.dev/svgjs" width="1000" height="623" viewBox="0 0 1000 623"><g transform="matrix(1,0,0,1,-0.6060592479980187,0.2522267206477409)"><svg viewBox="0 0 396 247" data-background-color="#000000" preserveAspectRatio="xMidYMid meet" height="623" width="1000" xmlns="http://www.w3.org/2000/svg" xmlns:xlink="http://www.w3.org/1999/xlink"><g id="tight-bounds" transform="matrix(1,0,0,1,0.23999982070847636,-0.09999999999999432)"><svg viewBox="0 0 395.52 247.2" height="247.2" width="395.52"><g><svg></svg></g><g><svg viewBox="0 0 395.52 247.2" height="247.2" width="395.52"><g><path xmlns="http://www.w3.org/2000/svg" d="M55.039 247.2l26.86-46.523h2.868l-25.348 43.904h276.682l-25.348-43.904 2.868 0 26.86 46.523zM197.76 0l26.86 46.523h-2.867l-23.993-41.557-23.993 41.557-2.867 0z" fill="#ffffff" fill-rule="nonzero" stroke="none" stroke-width="1" stroke-linecap="butt" stroke-linejoin="miter" stroke-miterlimit="10" stroke-dasharray="" stroke-dashoffset="0" font-family="none" font-weight="none" font-size="none" text-anchor="none" style="mix-blend-mode: normal" data-fill-palette-color="tertiary"></path></g><g transform="matrix(1,0,0,1,0,68.54531192931417)"><svg viewBox="0 0 395.52 110.10937614137165" height="110.10937614137165" width="395.52"><g><svg viewBox="0 0 568.077590575059 158.14792955631398" height="110.10937614137165" width="395.52"><g transform="matrix(1,0,0,1,172.5575905750591,48.87000573378839)"><svg viewBox="0 0 395.52 60.4079180887372" height="60.4079180887372" width="395.52"><g id="textblocktransform"><svg viewBox="0 0 395.52 60.4079180887372" height="60.4079180887372" width="395.52" id="textblock"><g><svg viewBox="0 0 395.52 60.4079180887372" height="60.4079180887372" width="395.52"><g transform="matrix(1,0,0,1,0,0)"><svg width="395.52" viewBox="0 -35.79999923706055 234.38999938964844 35.79999923706055" height="60.4079180887372" data-palette-color="#ffffff"><path d="M25.25-2.15L31.5-2.15 31.5 0 0 0 0-2.15 6.4-2.15Q4-3.4 2-5.25L2-5.25 5.7-9.7Q11-5.1 16.7-5.1L16.7-5.1Q19.55-5.1 21.23-6.33 22.9-7.55 22.9-9.58 22.9-11.6 21.33-12.73 19.75-13.85 15.9-14.78 12.05-15.7 10.05-16.48 8.05-17.25 6.5-18.5L6.5-18.5Q3.4-20.85 3.4-25.7 3.4-30.55 6.93-33.18 10.45-35.8 15.65-35.8L15.65-35.8Q19-35.8 22.3-34.7 25.6-33.6 28-31.6L28-31.6 24.85-27.15Q23.3-28.55 20.65-29.45 18-30.35 15.43-30.35 12.85-30.35 11.2-29.3 9.55-28.25 9.55-26.13 9.55-24 11.2-22.88 12.85-21.75 18.23-20.45 23.6-19.15 26.33-16.8 29.05-14.45 29.05-10.2L29.05-10.2Q29.05-5.05 25.25-2.15L25.25-2.15ZM42.25-2.15L65.7-2.15 65.7 0 31.5 0 31.5-2.15 36.35-2.15 36.35-34.95 48.35-34.95Q56.3-34.95 59.95-31.9 63.6-28.85 63.6-22.5 63.6-16.15 59.87-13.2 56.15-10.25 48.45-10.25L48.45-10.25 42.25-10.25 42.25-2.15ZM49.1-15.6Q54-15.6 55.77-17.48 57.55-19.35 57.55-22.98 57.55-26.6 55.3-28.1 53.05-29.6 48.25-29.6L48.25-29.6 42.25-29.6 42.25-15.6 49.1-15.6ZM65.7-2.15L70.55-2.15 70.55-34.95 95.1-34.95 95.1-29.4 76.45-29.4 76.45-20.15 93.2-20.15 93.2-14.9 76.45-14.9 76.45-5.55 95.7-5.55 95.7-2.15 100.55-2.15 100.55 0 65.7 0 65.7-2.15ZM128.64-2.15L135.19-2.15 135.19 0 98.39 0 98.39-2.15 109.49-2.15Q105.54-4.5 103.27-8.55 100.99-12.6 100.99-17.7L100.99-17.7Q100.99-25.4 106.32-30.6 111.64-35.8 119.77-35.8 127.89-35.8 133.34-29.8L133.34-29.8 129.59-25.7Q127.09-28.1 124.87-29.05 122.64-30 119.64-30L119.64-30Q114.34-30 110.74-26.58 107.14-23.15 107.14-17.82 107.14-12.5 110.72-8.93 114.29-5.35 119.19-5.35L119.19-5.35Q122.24-5.35 124.44-6.38 126.64-7.4 129.04-9.65L129.04-9.65 132.84-5.75Q130.64-3.35 128.64-2.15L128.64-2.15ZM153.24-2.15L165.39-2.15 165.39 0 135.19 0 135.19-2.15 147.34-2.15 147.34-29.55 136.74-29.55 136.74-34.95 163.84-34.95 163.84-29.55 153.24-29.55 153.24-2.15ZM165.39-2.15L170.24-2.15 170.24-34.95 194.79-34.95 194.79-29.4 176.14-29.4 176.14-20.15 192.89-20.15 192.89-14.9 176.14-14.9 176.14-5.55 195.39-5.55 195.39-2.15 200.24-2.15 200.24 0 165.39 0 165.39-2.15ZM206.19 0L195.44 0 195.44-2.15 200.24-2.15 210.84-17.95 199.69-34.95 206.99-34.95 214.79-23.15 215.04-23.15 222.84-34.95 230.14-34.95 218.99-17.95 229.54-2.15 234.39-2.15 234.39 0 223.64 0 215.04-13.15 214.79-13.15 206.19 0Z" opacity="1" transform="matrix(1,0,0,1,0,0)" fill="#ffffff" class="wordmark-text-0" data-fill-palette-color="primary" id="text-0"></path></svg></g></svg></g></svg></g></svg></g><g><svg viewBox="0 0 158.29673090434238 158.14792955631398" height="158.14792955631398" width="158.29673090434238"><g><svg xmlns="http://www.w3.org/2000/svg" xmlns:xlink="http://www.w3.org/1999/xlink" version="1.1" x="0" y="0" viewBox="0.0005254745483398438 0.022649049758911133 47.999473571777344 47.95435333251953" enable-background="new 0 0 48 48" xml:space="preserve" height="158.14792955631398" width="158.29673090434238" class="icon-icon-0" data-fill-palette-color="accent" id="icon-0"><g fill="#ffffff" data-fill-palette-color="accent"><path d="M44.294 39.795H17.123c-2.044 0-3.707 1.663-3.707 3.706v0.77c0 2.043 1.663 3.706 3.707 3.706h27.171c2.044 0 3.706-1.663 3.706-3.706v-0.77C48 41.458 46.338 39.795 44.294 39.795z" fill="#ffffff" data-fill-palette-color="accent"></path><g fill="#ffffff" data-fill-palette-color="accent"><circle cx="24.228" cy="21.11" r="1.5" fill="#ffffff" data-fill-palette-color="accent"></circle><path d="M42.74 22.57h-0.086L21.14 1.293c-0.93-0.92-2.156-1.375-3.363-1.25-1.206 0.126-2.309 0.824-3.027 1.914L4.675 17.227c-3.235 1.035-5.112 4.548-4.587 8.701 0.544 4.299 3.73 8.636 9.623 8.636 0.608 0 1.242-0.047 1.885-0.141 0.156-0.023 0.295-0.115 0.375-0.253 0.079-0.138 0.092-0.303 0.034-0.45L6.153 18.761l10.331-15.66c0.381-0.577 0.915-0.929 1.508-0.991 0.595-0.062 1.191 0.173 1.686 0.661L39.698 22.57h-8.655c-0.031 0-0.059 0.015-0.09 0.018l-0.33-3.129c0-2.38-1.938-4.318-4.319-4.318h-6.549c-2.382 0-4.319 1.938-4.319 4.318v12.747c0 2.192 1.648 3.988 3.769 4.262v1.25h7.361H36.59h9.947c0.574 0 1.039-0.465 1.039-1.039v-9.271C47.576 24.74 45.406 22.57 42.74 22.57zM22.898 26.423h-2.192l2.182-1.275v1.149C22.888 26.341 22.896 26.38 22.898 26.423zM26.555 26.423c0.002-0.043 0.011-0.082 0.011-0.126v-1.292c0-1.144-0.827-2.079-1.839-2.079-0.571 0-1.076 0.304-1.414 0.77l-3.22 1.882c-0.248 0.146-0.332 0.464-0.187 0.711 0.033 0.058 0.086 0.095 0.136 0.134h-1.686l0.454-8.128h0.137 8.264l1.136 8.128H26.555z" fill="#ffffff" data-fill-palette-color="accent"></path></g></g></svg></g></svg></g></svg></g></svg></g></svg></g><defs></defs></svg><rect width="395.52" height="247.2" fill="none" stroke="none" visibility="hidden"></rect></g></svg></g></svg>